<?xml version="1.0" encoding="UTF-8"?>
<svg id="Layer_1" xmlns="http://www.w3.org/2000/svg" xmlns:xlink="http://www.w3.org/1999/xlink" version="1.1" viewBox="0 0 648 288">
  <!-- Generator: Adobe Illustrator 29.4.0, SVG Export Plug-In . SVG Version: 2.1.0 Build 152)  -->
  <defs>
    <style>
      .st0 {
        fill: url(#linear-gradient2);
      }

      .st1 {
        fill: url(#linear-gradient1);
      }

      .st2 {
        fill: url(#linear-gradient3);
      }

      .st3 {
        fill: url(#linear-gradient6);
      }

      .st4 {
        fill: url(#linear-gradient5);
      }

      .st5 {
        fill: url(#linear-gradient4);
      }

      .st6 {
        fill: url(#linear-gradient);
      }

      .st7 {
        fill: #53b6e7;
      }

      .st8 {
        fill: #152434;
        font-family: TrebuchetMS-Bold, 'Trebuchet MS';
        font-size: 43.34px;
        font-weight: 700;
      }
    </style>
    <linearGradient id="linear-gradient" x1="-43.05" y1="92.82" x2="394.04" y2="251.91" gradientUnits="userSpaceOnUse">
      <stop offset=".23" stop-color="#fed208"/>
      <stop offset=".45" stop-color="#ea7324"/>
      <stop offset=".5" stop-color="#e16c2d"/>
      <stop offset=".59" stop-color="#c95c46"/>
      <stop offset=".71" stop-color="#a2416f"/>
      <stop offset=".79" stop-color="#852d8e"/>
    </linearGradient>
    <linearGradient id="linear-gradient1" x1="-10.12" y1="41.51" x2="395.95" y2="189.3" xlink:href="#linear-gradient"/>
    <linearGradient id="linear-gradient2" x1="335.12" y1="109.97" x2="664.21" y2="109.97" gradientUnits="userSpaceOnUse">
      <stop offset=".17" stop-color="#472a70"/>
      <stop offset=".28" stop-color="#6f2a7f"/>
      <stop offset=".49" stop-color="#93478d"/>
      <stop offset=".71" stop-color="#a75c98"/>
      <stop offset="1" stop-color="#cc94b4"/>
    </linearGradient>
    <linearGradient id="linear-gradient3" x1="335.12" y1="171.46" x2="664.21" y2="171.46" gradientUnits="userSpaceOnUse">
      <stop offset=".18" stop-color="#472a70"/>
      <stop offset=".31" stop-color="#6f2a7f"/>
      <stop offset=".47" stop-color="#93478d"/>
      <stop offset=".71" stop-color="#a75c98"/>
      <stop offset="1" stop-color="#cc94b4"/>
    </linearGradient>
    <linearGradient id="linear-gradient4" x1="335.12" y1="76.65" x2="664.21" y2="76.65" gradientUnits="userSpaceOnUse">
      <stop offset="0" stop-color="#472a70"/>
      <stop offset=".34" stop-color="#6f2a7f"/>
      <stop offset=".71" stop-color="#93478d"/>
    </linearGradient>
    <linearGradient id="linear-gradient5" x1="335.12" y1="167.31" x2="664.21" y2="167.31" xlink:href="#linear-gradient4"/>
    <linearGradient id="linear-gradient6" x1="335.12" y1="40.56" x2="664.21" y2="40.56" xlink:href="#linear-gradient4"/>
  </defs>
  <path class="st6" d="M121.76,192.75h-45.75l2.08-11.79h-.41c-3.41,3.93-8.04,7.36-13.91,10.27-5.87,2.91-12.26,4.37-19.17,4.37-7.59,0-13.59-1.32-18.01-3.96-4.41-2.64-7.7-6.1-9.86-10.37-2.16-4.27-3.35-9.08-3.55-14.44-.21-5.35.15-10.67,1.09-15.96l11.47-65.07h46.97l-9.97,56.53c-.96,5.42-.77,9.22.56,11.39,1.33,2.17,3.7,3.25,7.12,3.25,3.15,0,5.94-1.25,8.36-3.76,2.42-2.51,4.06-6.13,4.9-10.88l9.97-56.53h46.97l-18.86,106.96Z"/>
  <path class="st1" d="M243.89,140.29c-.31,1.76-.66,3.56-1.05,5.39-.39,1.83-.76,3.36-1.11,4.58h-71.98c-.2,1.9.14,3.59,1.04,5.08.89,1.49,2.08,2.78,3.59,3.86,1.5,1.09,3.26,1.9,5.26,2.44,2,.54,4.09.81,6.26.81,4.34,0,8.1-.78,11.29-2.34,3.19-1.56,5.69-3.29,7.52-5.19l30.37,16.88c-6.11,7.73-14.07,13.83-23.87,18.3-9.81,4.47-20.67,6.71-32.6,6.71-7.73,0-15.04-1.22-21.93-3.66-6.89-2.44-12.73-6.06-17.5-10.88-4.78-4.81-8.23-10.81-10.35-18-2.12-7.18-2.35-15.52-.67-25.01,1.55-8.81,4.52-16.78,8.89-23.89,4.37-7.12,9.67-13.15,15.9-18.1,6.23-4.95,13.2-8.77,20.94-11.49,7.73-2.71,15.73-4.07,24-4.07s15.81,1.46,22.21,4.37c6.4,2.92,11.61,6.98,15.64,12.2,4.03,5.22,6.76,11.42,8.21,18.61,1.44,7.19,1.43,14.98-.06,23.38ZM177.7,74l27.73-29.28h43.11l-36.48,29.28h-34.37ZM206.11,125.04c.67-3.79-.17-6.91-2.52-9.35-2.35-2.44-5.9-3.66-10.64-3.66-5.15,0-9.4,1.42-12.75,4.27-3.35,2.85-5.49,5.76-6.42,8.74h32.33Z"/>
  <path class="st7" d="M272.09,54.88c.57-3.25,1.76-6.34,3.56-9.25,1.8-2.91,4.01-5.46,6.63-7.63,2.62-2.17,5.53-3.9,8.74-5.19,3.21-1.29,6.51-1.93,9.9-1.93s6.19.65,8.81,1.93c2.62,1.29,4.86,3.02,6.71,5.19,1.85,2.17,3.17,4.71,3.94,7.63.77,2.92.87,6,.3,9.25-.6,3.39-1.8,6.54-3.6,9.46-1.8,2.92-4.01,5.42-6.61,7.52-2.61,2.1-5.44,3.76-8.5,4.98s-6.22,1.83-9.47,1.83-6.47-.61-9.23-1.83c-2.77-1.22-5.08-2.88-6.95-4.98-1.87-2.1-3.19-4.61-3.96-7.52-.78-2.91-.86-6.06-.26-9.46ZM267.45,85.79h46.97l-18.86,106.96h-46.97l18.86-106.96Z"/>
  <text class="st8" transform="translate(7.02 257.83) scale(.98) skewX(-10)"><tspan x="0" y="0">Université d’Été Internationale</tspan></text>
  <g>
    <path class="st0" d="M480.33,189.72c-.28,0-.56-.03-.84-.1-1.76-.44-2.46-2.4-2.5-3.61-.07-2.49-.13-4.75-.01-7.08.04-.75-.11-1.35-.98-2.2-1.95-1.91-3.88-3.85-5.82-5.78-1.69-1.69-3.39-3.38-5.09-5.06-1.32-1.3-1.95-2.82-1.93-4.63.02-1.87,0-3.74,0-5.61-.02-3.08-.05-6.26.08-9.41.06-1.55-.45-2.58-1.88-3.79-1.08-.91-2.03-1.92-2.82-2.79-1.12-1.23-1.66-2.71-1.6-4.39.04-1.27.03-2.55.03-3.83,0-.75,0-1.49,0-2.24,0-.36-.05-.51-.06-.54,0,0-.05-.03-.13-.06,0-.02-.17.03-.52.36-.85.8-1.68,1.63-2.5,2.46-.63.64-1.26,1.27-1.91,1.9-2.04,1.97-4.28,1.95-6.31-.07l-2.49-2.47c-2.95-2.93-5.89-5.86-8.85-8.77-1.55-1.52-2.27-3.27-2.21-5.34.1-3.44.1-6.9,0-10.29-.06-2.22.71-4.09,2.37-5.72,1.94-1.91,3.87-3.84,5.8-5.77,2.3-2.3,4.6-4.6,6.93-6.87.98-.96,2.5-1.59,3.87-1.62,4.71-.1,9.34-.11,13.75-.03,1.55.03,3.01.83,3.86,1.57,1.16,1.01,2.21,2.09,3.23,3.13.35.35.69.71,1.04,1.06.39.39.69.51.81.48.1,0,.26-.12.41-.3,2.22-2.69,5-3.85,8.52-3.53,1.41.13,2.87.1,4.42.06.78-.02,1.57-.04,2.35-.03.48,0,.57-.08.57-.08.08-.22.15-.4-.37-.98-.99-1.12-1.79-1.28-2.69-1.18-.32.04-.65.03-.98.02-.07,0-.15,0-.22,0-4.13.81-6.74-1.97-8.15-3.46-2.55-2.71-5.27-5.32-7.59-7.52.04.04-.17-.02-.36-.03-2.06-.08-4.76-.15-7.43-.03-.14.01-.51.17-.75.38-1.13,1.01-2.21,2.07-3.34,3.2-.56.56-1.12,1.11-1.69,1.66-.42.4-1.68,1.63-3.47,1.43-1.78-.2-2.76-1.7-3.08-2.19l-.64-.98c-1.81-2.79-3.62-5.57-5.45-8.35-1.19-1.8-.98-3.79.56-5.32,6.14-6.12,12.29-12.25,18.42-18.38l1.21-1.21c1.79-1.78,3.64-3.62,5.39-5.48,1.5-1.58,3.29-2.31,5.44-2.3,2.82.05,5.7.04,8.48.03h5.9s0,0,0,0h.88c2.84,0,5.67-.02,8.51.02.92-.03,1.36-.24,1.79-.7.96-1.03,1.96-2.02,2.93-2.98.73-.72,1.46-1.44,2.17-2.17,1.28-1.33,2.83-1.95,4.64-1.96l2.95.02c19.52.1,39.69.2,59.54.17h.02c3.32,0,5.78,1.11,7.75,3.48.45.54.99,1.07,1.57,1.63.25.25.51.49.75.74.35.35.75.58,1.59.58h.02c9.22-.04,18.43,0,27.65-.04h.05c2.08,0,3.72.69,5.16,2.18,1.94,2.01,3.92,3.99,5.9,5.96.93.93,1.86,1.86,2.79,2.79,2.17,2.18,2.17,4.29.02,6.45-2.94,2.95-5.88,5.9-8.82,8.84-2.34,2.33-4.33,2.35-6.66.06-1.63-1.61-3.25-3.23-4.86-4.86l-.69-.7c-.55-.55-.88-.64-1.29-.64-1.15.03-2.3.02-3.44.01-1.33-.01-2.58-.02-3.84.03-.51.02-1,.2-1.23.36-.72.52-1.46,1.25-2.33,2.3,0,0,.04.06.09.15.09.17.18.22.38.22h1.21c1.65.02,3.31.03,4.97,0,1.68-.04,3.16.57,4.39,1.82,2.38,2.41,4.78,4.81,7.18,7.2l3.52,3.53c2.31,2.31,2.32,4.28.04,6.57-2.32,2.34-4.66,4.67-6.99,6.99l-17.35,17.35c-.77.77-1.54,1.53-2.32,2.28-1.56,1.52-3.17,3.1-4.65,4.7-.35.37-.55.62-.66.78.12.17.33.44.69.86.65.74,1.39,1.45,2.17,2.19.4.39.81.77,1.21,1.17,2.27,2.26,2.27,4.39,0,6.7-.75.77-1.52,1.52-2.28,2.28-.71.71-1.42,1.42-2.13,2.13l-.72.72c-.75.74-1.46,1.44-2.03,2.18-.16.21-.29.58-.29.76-.04,2-.04,3.99-.04,5.98,0,1.66,0,3.31-.02,4.97,0,.43-.12,2.64-1.75,3.7-1.66,1.08-3.71.62-5.06-1.11-.1-.09-.18-.16-.26-.24l-2.2-2.21c-2.34-2.35-4.75-4.77-7.09-7.21-.87-.91-1.44-2.34-1.46-3.66-.08-6.05-.08-10.72,0-15.14.01-.87-.23-1.43-.89-2.07-.78-.76-1.55-1.53-2.32-2.31-.72-.73-1.44-1.46-2.18-2.17-.38-.36-.61-.53-.73-.6-.12.07-.35.23-.72.59-.65.63-1.29,1.27-1.93,1.91-.89.89-1.78,1.79-2.7,2.65-.56.53-.77,1.05-.75,1.86.04,1.48.03,2.97.02,4.46v1.43s0,.21,0,.21c0,.45.02,1.13-.22,1.85-.16.48-.82,2.07-2.4,2.51-1.24.34-2.72-.03-3.62-.9-2.61-2.52-5.56-5.39-8.35-8.33-1.36-1.43-1.55-3.45-1.57-4.03-.07-1.74-.06-3.47-.04-5.15,0-1,.02-1.99,0-2.99,0-.57-.05-.87-.09-1.03-.15-.04-.45-.09-.98-.11-1.43-.05-2.85-.04-4.35-.03-.74,0-1.49.01-2.23.01h0c-.61,0-1.18.22-2.27,1.34-3.4,3.47-6.89,6.95-10.27,10.32l-1.64,1.64c-1.44,1.43-3.82,2.12-6.19-.26l-4.17-4.17c-2.64-2.64-5.27-5.28-7.92-7.91-.43-.43-.87-.76-1.27-.97-.03-.02-.08-.01-.13,0-.02.14,0,.35.03.47,2.66,2.67,5.33,5.34,8,8l4.26,4.25c1.44,1.45,2.89,2.89,4.35,4.32.29.28.71.7.99.85.12-.07.34-.24.75-.63.26-.25.52-.52.77-.78.51-.53,1.03-1.07,1.65-1.59.9-.75,2.28-1.09,3.44-.85,1.57.33,2.56,2.01,2.58,3.38.04,3.26.07,6.95-.05,10.55-.06,1.62-1.25,2.83-1.88,3.48-1.91,1.93-3.83,3.85-5.76,5.76-1.04,1.03-2.08,2.07-3.12,3.11-.51.51-1.02,1.04-1.53,1.56-.8.82-1.6,1.64-2.42,2.44-.08.07-.13.13-.13.53,0,.77-.02,1.53-.04,2.3-.04,1.59-.08,3.1.07,4.54.4,3.83-1.67,6.23-3.52,7.9-1.72,1.55-3.12,2.97-4.28,4.34-.13.15-.33.66-.36,1.2-.09,1.41-.07,2.83-.04,4.33,0,.54.02,1.08.02,1.62.01,1.84-.62,3.36-1.93,4.65-1.76,1.72-3.49,3.46-5.22,5.2-1.52,1.53-3.04,3.05-4.57,4.56-.66.65-1.79,1.23-2.98,1.23ZM479.84,184.96s0,0-.01.01c0,0,0,0,.01-.01ZM456.71,123.62c.71,0,1.35.16,1.88.37,1.24.5,3.32,1.84,3.3,5.22,0,.73,0,1.45,0,2.18,0,1.34.02,2.68-.03,4.02-.01.39.07.63.32.9.68.75,1.5,1.62,2.35,2.34,1.64,1.39,3.81,3.7,3.64,7.78-.13,3.03-.1,6.16-.08,9.17.01,1.9.03,3.8,0,5.7,0,.44.06.67.46,1.06,1.71,1.69,3.41,3.39,5.12,5.09,1.92,1.92,3.85,3.84,5.79,5.75,1.76,1.73,2.57,3.68,2.46,5.97-.06,1.24-.07,2.48-.05,3.77.83-.83,1.66-1.66,2.49-2.5,1.75-1.76,3.5-3.52,5.27-5.25.35-.34.45-.58.44-1.07,0-.52-.01-1.05-.02-1.57-.03-1.54-.05-3.13.05-4.74.05-.74.29-2.63,1.53-4.08,1.3-1.54,2.86-3.12,4.74-4.82,1.59-1.43,2.05-2.33,1.91-3.71-.18-1.76-.14-3.5-.1-5.18.02-.72.04-1.45.03-2.17,0-1.69.54-3.04,1.65-4.11.78-.75,1.54-1.53,2.3-2.32.52-.54,1.05-1.08,1.58-1.61,1.04-1.04,2.09-2.08,3.14-3.12,1.91-1.9,3.83-3.8,5.72-5.73.22-.22.38-.39.47-.51.07-2.23.08-4.52.07-6.71-.03.03-.06.06-.09.09-.84.81-3.09,2.96-6.14,1.61-1.09-.48-1.9-1.28-2.49-1.85-1.48-1.44-2.94-2.91-4.4-4.37l-4.25-4.25c-2.7-2.69-5.4-5.39-8.09-8.09-1.69-1.7-1.9-4.9-.46-6.84,1.43-1.93,4.25-2.56,6.42-1.44.85.44,1.68,1.06,2.47,1.85,2.65,2.63,5.3,5.28,7.94,7.93l3.89,3.9,1.11-1.11c3.37-3.36,6.85-6.83,10.23-10.28,1.38-1.4,3.19-2.86,5.83-2.83.72,0,1.45,0,2.17-.01,1.5-.01,3.04-.02,4.58.03,3.94.15,5.79,2.07,5.83,6.04,0,1.02,0,2.05,0,3.07-.01,1.62-.02,3.3.04,4.92.02.37.16.74.23.84,1.97,2.07,4.06,4.14,6.04,6.07,0-1.26.01-2.53-.02-3.79-.06-2.23.72-4.11,2.31-5.61.88-.82,1.73-1.68,2.58-2.53.66-.66,1.32-1.33,1.99-1.98,2.8-2.71,5.53-2.7,8.34,0,.76.74,1.51,1.49,2.26,2.25.74.75,1.48,1.5,2.23,2.23,1.65,1.6,2.44,3.46,2.4,5.71-.07,4.37-.07,8.99,0,14.99,0,.08.07.27.12.34,2.27,2.37,4.67,4.78,6.99,7.11l.83.83c0-.81,0-1.62,0-2.43,0-2.03,0-4.07.04-6.1.03-1.27.53-2.65,1.33-3.69.77-1,1.63-1.85,2.46-2.67l.68-.68c.72-.73,1.44-1.44,2.16-2.16.71-.71,1.42-1.41,2.12-2.12-.32-.31-.64-.62-.97-.93-.83-.79-1.68-1.6-2.48-2.51-2.73-3.11-2.71-5.27.06-8.27,1.57-1.69,3.23-3.31,4.83-4.88.76-.74,1.53-1.49,2.28-2.24l17.36-17.35c2.25-2.25,4.51-4.49,6.75-6.75l-3.33-3.34c-2.4-2.4-4.81-4.81-7.2-7.22-.32-.32-.48-.35-.76-.35-1.7.04-3.41.03-5.11.02h-1.2c-2-.02-3.76-1.07-4.71-2.82-1.03-1.9-.87-4.05.41-5.61,1.16-1.41,2.2-2.43,3.28-3.21,1.06-.76,2.48-1.23,3.92-1.29,1.38-.06,2.76-.05,4.09-.03,1.09,0,2.17.02,3.26,0,1.87-.07,3.5.63,4.95,2.1l.69.7c1.54,1.55,3.08,3.11,4.64,4.65,2.8-2.8,5.6-5.61,8.4-8.41-.84-.84-1.68-1.68-2.52-2.52-2-2-4.01-3.99-5.97-6.03-.5-.51-.88-.66-1.62-.67-9.22.05-18.43,0-27.65.04h-.04c-2.04,0-3.76-.69-5.11-2.05-.23-.23-.46-.46-.69-.68-.64-.63-1.31-1.27-1.93-2.02-1.02-1.23-2.07-1.71-3.95-1.68-19.86.03-40.05-.07-59.57-.17h-2.95c-.46-.04-.71.07-1.05.43-.74.76-1.49,1.51-2.25,2.26-.98.96-1.9,1.88-2.79,2.83-1.45,1.56-3.24,2.29-5.47,2.27-2.81-.04-5.62-.03-8.43-.02h-5.85s0,0,0,0h-.93c-2.81.01-5.71.02-8.58-.03-.78-.03-1.22.18-1.76.75-1.8,1.9-3.68,3.77-5.49,5.58l-1.21,1.2c-6,6-12.01,11.99-18.02,17.98,1.73,2.63,3.43,5.26,5.14,7.88l.19.29c.35-.34.69-.69,1.04-1.03,1.13-1.13,2.3-2.29,3.54-3.39,1.08-.96,2.51-1.56,3.82-1.62,2.85-.13,5.68-.05,7.83.03.52.02,2.3.18,3.57,1.38,2.37,2.25,5.15,4.92,7.79,7.72,1.67,1.77,2.5,2.21,3.71,1.98.52-.1.96-.08,1.29-.06.07,0,.15,0,.22,0,2.66-.3,5,.65,6.92,2.81,2.11,2.38,1.85,4.63,1.26,6.1-.82,2.04-2.7,3.2-5.15,3.2h-.18c-.69,0-1.38.02-2.07.03-1.62.04-3.29.08-4.99-.08-1.88-.17-3.07.32-4.24,1.74-1.06,1.28-2.48,2.03-4,2.1-1.62.07-3.24-.61-4.56-1.93-.36-.36-.72-.73-1.08-1.1-.99-1.02-1.93-1.98-2.94-2.85-.23-.2-.57-.34-.71-.36-4.34-.07-8.91-.06-13.56.03-.13,0-.41.12-.51.21-2.31,2.25-4.6,4.54-6.88,6.83-1.94,1.94-3.88,3.87-5.83,5.8-.69.68-.92,1.2-.89,2.04.1,3.48.1,7.04,0,10.58-.02.69.17,1.11.74,1.67,2.96,2.92,5.91,5.85,8.86,8.79l2.19,2.17c.51-.5,1-1,1.5-1.5.87-.88,1.74-1.75,2.64-2.59,1.38-1.29,2.72-1.71,3.86-1.71ZM572.04,143.53s0,0,0,0c0,0,0,0,0,0ZM491.29,103.52h0Z"/>
    <path class="st2" d="M615.22,194.16c-1.27,0-2.34-.81-3.33-1.79l-1.43-1.42c-2.17-2.15-4.41-4.37-6.57-6.62-.79-.82-1.32-.95-2.03-.91-1.85.12-3.81.12-5.99,0-.57-.03-.99.1-1.68.85-1.05,1.15-2.04,2.1-3,2.91-1.17.98-2.55,1.26-3.78.77-1.26-.49-2.11-1.67-2.31-3.24-.09-.65-.07-1.25-.07-1.79v-.46c0-1.75,0-3.49,0-5.23v-.58c0-.61.01-1.23.02-1.84.03-1.35.05-2.62-.05-3.86-.21-2.55.73-4.66,2.87-6.45,1.36-1.14,2.71-2.3,4.06-3.47,1.75-1.5,3.49-3,5.27-4.47.98-.8,2.38-1.3,3.75-1.33l1.3-.03c3.22-.07,6.56-.14,9.87.06,1.63.11,2.74-.4,3.96-1.79.95-1.07,1.96-2.05,2.94-2.99l.59-.57c1.62-1.57,3.86-1.56,5.46.03l1.4,1.4c2.59,2.58,5.26,5.24,7.85,7.92,1.05,1.09,1.23,2.64,1.24,3.47.04,3.05.07,6.68-.03,10.42-.04,1.4-.62,2.84-1.53,3.77-4.65,4.73-9.72,9.82-15.51,15.55-1.23,1.22-2.3,1.68-3.26,1.68ZM602.07,178.46c2.05,0,3.82.8,5.39,2.44,2.12,2.21,4.34,4.41,6.49,6.54l1.3,1.28c5.67-5.62,10.65-10.61,15.22-15.26.03-.05.11-.29.12-.43.1-3.66.07-7.22.03-10.23,0-.11-.01-.21-.03-.28-2.5-2.58-5.09-5.16-7.6-7.67l-.67-.66c-.9.86-1.75,1.69-2.52,2.56-2.22,2.52-4.83,3.66-7.98,3.46-3.11-.19-6.33-.12-9.45-.06l-1.31.03c-.27,0-.6.12-.7.2-1.75,1.44-3.47,2.92-5.18,4.4-1.37,1.18-2.73,2.35-4.11,3.51-1.02.86-1.18,1.45-1.12,2.25.12,1.49.09,2.95.07,4.37-.01.58-.02,1.17-.02,1.75v.58c0,1.43,0,2.86,0,4.29.18-.19.37-.39.56-.59,1.62-1.77,3.45-2.57,5.61-2.45,1.98.11,3.75.11,5.4,0,.18-.01.36-.02.54-.02ZM623.06,153.48h0s0,0,0,0Z"/>
    <g>
      <path class="st5" d="M350.32,121.02c-3.54,0-5.83-2.39-7.58-4.2l-.43-.44c-2.84-2.92-5.79-5.84-8.65-8.66-1.31-1.29-2.62-2.59-3.92-3.89l-1.75-1.74c-1.94-1.92-3.94-3.9-5.85-5.93-.91-.96-1.51-2.45-1.57-3.9-.08-1.9-.07-3.8-.05-5.64,0-.38,0-.76,0-1.14v-.97c0-.71,0-1.42,0-2.12.01-1.65.02-3.35-.03-5-.06-1.8.59-3.36,1.99-4.77l1.03-1.03c.99-.98,1.92-1.9,2.81-2.87.28-.31.37-.51.38-.56-.01.04-.14-.17-.5-.46-.88-.72-1.79-1.41-2.7-2.09-.44-.33-.88-.66-1.32-1l-1.15-.89c-.78-.61-1.57-1.22-2.37-1.81-1.03-.74-2.25-2.16-2.22-4.64v-.48c.02-.19.03-.38.02-.57-.02-.37-.1-.54-.12-.56h0s-.12-.08-.49-.09c-.73-.01-1.46,0-2.19,0-1.32.02-2.69.04-4.07-.06-.68-.04-1.21.1-2.1,1.02-1.85,1.9-3.76,3.79-5.61,5.61l-.66.65c-1.68,1.65-4,1.67-5.64.05-1.61-1.6-3.21-3.2-4.8-4.82-1.74-1.77-1.75-3.95-.05-5.69,2.15-2.19,4.32-4.36,6.49-6.53l1.84-1.85c.42-.42.84-.83,1.27-1.25.78-.77,1.57-1.53,2.32-2.33,1.29-1.38,2.89-2.01,4.86-2.05,13.52.02,27.04,0,40.56.04h.03c1.62,0,2.35-.46,2.95-1.16,1.07-1.24,2.22-2.37,3.41-3.37.53-.44,1.94-1.47,3.64-1.48,7.2-.04,14.4-.05,21.6-.05h8.43s0,0,0,0c1.54,0,2.83.55,3.94,1.68,1.57,1.6,3.17,3.18,4.77,4.77,1.09,1.08,2.19,2.16,3.27,3.25,2.13,2.14,2.09,4.25-.11,6.45l-1.82,1.82c-1.19,1.19-2.38,2.37-3.57,3.57-.44.45-.38.54-.03.9,2.36,2.43,4.75,4.82,7.15,7.21.89.89,1.8,1.99,1.79,3.49-.01,1.69-1.24,2.89-1.83,3.46-1.71,1.66-3.69,3.6-5.53,5.55-1.16,1.23-2.63,1.85-4.36,1.85h-3.15c-1.61,0-3.22,0-4.83,0-.7.01-1.23.22-1.78.76-3.58,3.59-7.18,7.17-10.77,10.75l-3.59,3.58c-.33.33-.67.66-1.01.99-.77.75-1.49,1.45-2.16,2.19-1.48,1.63-3.26,1.84-4.56,1.8-3.42-.02-6.85-.02-10.28-.01h-1.65c-1.01,0-1.28.19-1.28.2h0s-.19.26-.19,1.24c0,.67.01,1.34.03,2.01.04,1.48.07,3.01-.09,4.57-.13,1.28.3,2.2,1.65,3.48,1.99,1.89,4.06,3.97,6.53,6.54.65.68,1.73,2.42,1.12,4.11-.5,1.41-1.83,1.84-2.54,2.07-.1.03-.21.06-.29.1-.41.18-.79.22-1.06.22h0c-.55.1-1.08.15-1.58.15ZM352.21,120.8s0,0,0,0c0,0,0,0,0,0ZM325.48,83.16v1.36c0,.72,0,1.43-.01,2.15-.01,1.78-.03,3.61.05,5.38.01.28.15.63.24.73,1.85,1.96,3.82,3.91,5.72,5.8l1.76,1.75c1.3,1.29,2.6,2.58,3.91,3.87,2.87,2.84,5.84,5.78,8.71,8.73l.45.46c1.22,1.27,2.05,2.07,2.89,2.43-1.6-1.64-3.05-3.07-4.45-4.41-1.54-1.47-3.55-3.85-3.16-7.57.13-1.25.1-2.56.06-3.95-.02-.72-.03-1.44-.03-2.16.02-4.15,2.24-6.35,6.42-6.35h1.65c3.44,0,6.87,0,10.31,0,.68,0,.78-.09.87-.18.77-.85,1.59-1.64,2.37-2.41.32-.32.65-.63.97-.95l3.59-3.58c3.59-3.57,7.18-7.15,10.76-10.74,1.47-1.47,3.24-2.22,5.27-2.22h.04c1.6,0,3.2,0,4.8,0h3.15s0,0,0,0c.4,0,.55-.08.76-.3,1.89-2,3.89-3.96,5.62-5.65-2.4-2.39-4.79-4.79-7.14-7.21-2.28-2.34-2.26-5.49.06-7.84,1.19-1.21,2.39-2.4,3.59-3.6l1.6-1.59c-.97-.97-1.95-1.94-2.92-2.9-1.62-1.6-3.23-3.2-4.82-4.82-.19-.2-.25-.2-.41-.2h-8.43c-7.19.01-14.38.02-21.57.06,0,.01-.25.13-.49.32-.98.83-1.94,1.78-2.85,2.82-1.67,1.93-3.86,2.87-6.7,2.87h-.04c-13.52-.05-27.04-.01-40.55-.04h0c-.67,0-.93.15-1.23.47-.81.88-1.66,1.7-2.48,2.5-.41.4-.82.8-1.22,1.2l-1.85,1.85c-1.94,1.94-3.89,3.89-5.82,5.85,1.18,1.2,2.33,2.36,3.48,3.5l.02-.02c1.83-1.8,3.72-3.67,5.53-5.53,1.14-1.17,3-2.71,5.98-2.51,1.19.08,2.39.06,3.67.05.78-.01,1.55-.02,2.33,0,3.19.05,5.35,2.16,5.49,5.38.01.32,0,.64,0,.96v.36c-.01.45.06.5.17.58.85.62,1.68,1.26,2.51,1.91l1.12.87c.43.33.85.65,1.28.97.96.73,1.93,1.45,2.86,2.22,1.42,1.17,2.19,2.51,2.3,3.98.11,1.47-.45,2.88-1.66,4.21-.97,1.06-1.99,2.08-2.98,3.05l-1.01,1c-.53.53-.56.79-.55,1.1.06,1.75.05,3.5.04,5.2,0,.24,0,.49,0,.73Z"/>
      <path class="st4" d="M387.57,215.76l-2.34-.95c-.11-.04-.22-.07-.33-.11-.53-.16-1.33-.41-2.01-1.04-1.03-.95-2.01-1.95-2.96-2.92-.38-.39-.77-.78-1.15-1.17l-1.23-1.24c-1.28-1.28-2.56-2.57-3.85-3.83-1.32-1.29-1.98-2.89-1.97-4.75.02-4.45.02-8.91.02-13.36v-4.7c-.01-1.61-.02-3.21-.02-4.82-.01-4.11-.02-8.35.04-12.54.02-1.08-.28-1.77-1.08-2.56-3.04-2.96-6.08-6.01-9.02-8.96l-2.19-2.19c-1.21-1.21-1.81-2.68-1.79-4.36.06-5.29.06-9.99,0-14.35-.03-1.81.61-3.37,1.96-4.79l1.59-1.67c1.44-1.51,2.87-3.02,4.3-4.55,1.32-1.41,2.81-2.03,4.68-2.05,3.61.07,6.92.07,10.12,0,1.8-.06,3.38.6,4.67,1.91l2.45,2.49c1.46,1.48,2.92,2.97,4.39,4.44l.81.81c2.05,2.05,4.18,4.18,6.32,6.16.08.06.42.21.83.24,1.39.11,2.82.07,4.33.03h.34c1.65-.07,3.08.51,4.23,1.68.86.87,1.72,1.73,2.59,2.59,1.38,1.37,2.81,2.79,4.19,4.24.91.96,1.52,2.35,1.6,3.63.08,1.4.07,2.79.06,4.13,0,.74-.01,1.48,0,2.21.03,2.24-1.3,3.57-2.19,4.45l-.13.13c-1.19,1.19-2.38,2.38-3.57,3.56-2.71,2.7-5.51,5.49-8.21,8.28-.15.15-.37.62-.41,1.05-.12,1.29-.09,2.62-.06,4.03,0,.44.02.88.02,1.31.02,1.79-.64,3.35-1.95,4.65-2.39,2.37-4.76,4.76-7.13,7.16l-1.85,1.87c-.55.55-2.22,2.25-4.87,1.94-.11-.01-.4-.03-.52.08-.1.09-.22.35-.21.78.02,1.11.02,2.22.01,3.33,0,2.12,0,4.11.11,6.13.02.15.26.64.64,1,1.76,1.69,2.53,3.61,2.36,5.87-.01.18.01.37.03.56.04.44.08.99,0,1.61-.1.74-.36,1.33-.57,1.81-.05.12-.11.25-.16.37l-.9,2.36ZM376.67,179.22h.01v7.17c0,4.46,0,8.93-.01,13.39,0,.53.12.83.48,1.19,1.31,1.28,2.6,2.58,3.89,3.87l1.23,1.23c.4.4.79.8,1.18,1.2.26.26.51.52.76.77-.08-.41-.3-.81-.83-1.31-.98-.94-2.05-2.55-2.16-4.28-.13-2.16-.12-4.33-.12-6.43,0-1.08,0-2.17-.01-3.25-.03-1.82.62-3.42,1.83-4.52,1.16-1.05,2.72-1.53,4.41-1.34.11.02.26.03.79-.51l1.84-1.86c2.38-2.41,4.76-4.82,7.17-7.2.41-.4.48-.69.48-1.07,0-.42-.01-.84-.02-1.27-.03-1.48-.06-3.01.08-4.57.13-1.5.82-3.05,1.79-4.05,2.73-2.82,5.55-5.63,8.27-8.34,1.19-1.18,2.37-2.37,3.56-3.55l.14-.14c.31-.31.73-.73.73-.88-.01-.77,0-1.54,0-2.32.01-1.32.02-2.57-.05-3.8-.01-.12-.13-.39-.24-.51-1.33-1.39-2.73-2.79-4.09-4.13-.88-.87-1.76-1.75-2.63-2.63-.18-.18-.27-.22-.58-.22h-.34c-1.58.05-3.21.1-4.88-.04-.7-.06-2.47-.33-3.78-1.54-2.22-2.05-4.38-4.21-6.46-6.3l-.8-.8c-1.48-1.48-2.95-2.97-4.42-4.47l-2.44-2.48c-.34-.35-.59-.43-1.04-.44-3.26.07-6.64.07-10.32,0-.34-.02-.55.04-.96.47-1.43,1.54-2.88,3.06-4.33,4.59l-1.59,1.67c-.51.54-.6.87-.6,1.31.06,4.41.06,9.14,0,14.48,0,.36.07.53.34.8l2.19,2.19c2.93,2.94,5.96,5.97,8.97,8.9,1.77,1.72,2.61,3.74,2.58,6.18-.06,4.14-.05,8.36-.04,12.45,0,.79,0,1.57,0,2.36Z"/>
      <path class="st3" d="M411.75,55.63c-1.02,0-2.05-.47-3.07-1.41-3.62-2.52-3.38-6.44-3.3-7.74.13-2.2.09-4.4.04-6.73-.02-.74-.03-1.48-.04-2.23,0-.37-.1-.75-.8-.78-.33-.01-.67,0-1.01,0-.62.01-1.33.03-2.06-.05-.54-.06-2.37-.37-3.27-1.86-.94-1.56-.09-3.49.66-4.34,1.1-1.23,2.29-2.53,3.69-3.67,1.36-1.11,3.1-1.26,3.79-1.28,2.67-.05,5.37-.05,7.97-.04h5.81c2.47.02,4.95.02,7.42,0,1.99,0,3.57.67,4.87,2.1.65.71,1.34,1.39,2.03,2.07.8.78,1.62,1.59,2.4,2.47.67.75.98,1.59,1.23,2.27.06.18.13.36.2.53.26.59.24,1.12.22,1.35.09,5.25-.18,5.9-3.93,9.64-3.35,3.34-4,3.59-8.74,3.6h-1.86c-1.22,0-2.44,0-3.66-.01-.56,0-.93.15-1.32.54-1.35,1.33-2.7,2.66-4.05,3.99-1.07,1.05-2.14,1.58-3.23,1.58ZM404.46,31.79c.1,0,.2,0,.3,0,3.19.12,5.53,2.5,5.57,5.66,0,.73.02,1.46.04,2.19.05,2.32.1,4.73-.04,7.13-.12,2.08.38,2.84,1.3,3.46l.1.07c1.28-1.26,2.55-2.52,3.84-3.78,1.33-1.31,3.01-1.94,4.87-1.96,1.19.02,2.39.02,3.58.01h1.87c3.07,0,3.07,0,5.24-2.16,2.51-2.5,2.54-2.54,2.48-5.98-.04-.11-.08-.22-.13-.34-.09-.24-.22-.59-.29-.69-.66-.73-1.39-1.46-2.17-2.22-.75-.74-1.5-1.48-2.21-2.25-.35-.38-.59-.51-1.18-.49-2.49.02-4.98.02-7.47.01h-5.82c-2.58-.02-5.25-.03-7.86.03-.37,0-.7.12-.78.18-.42.34-.84.72-1.24,1.12ZM433.6,35.96s0,.01,0,.02v-.02Z"/>
    </g>
  </g>
</svg>