<svg id="&#x421;&#x43B;&#x43E;&#x439;_1" viewBox="0 0 1671.48 1989.64" xmlns="http://www.w3.org/2000/svg"><g id="Icon_Environmental_protection" stroke="#007a3a" stroke-linecap="round" stroke-linejoin="round" data-name="Icon Environmental protection"><ellipse cx="988.51" cy="1075.09" fill="#a1f6ff" rx="664.73" ry="668.9" stroke-dasharray="1747.05 80.02 6668.12 0" stroke-width="36.47"/><g transform="translate(-914.38 -755.18)"><path d="m1752.11 1296c-61.2 69.12-195.83 40.77-259.14 115.09-47 55-77 162.87-201 155.12 83-194.09 254.71-340.82 463.73-388.39 17.41 37.06 27.22 83.25-3.59 118.18z" fill="#10c462" stroke-dasharray="2644.98 79.35 6612.44 0" stroke-width="36"/><path d="m2016.95 1171.25c9.5 20.6 13.72 42.15 6.44 62-11.71 32-48.43 45.13-80.61 55.42q-42.57 13.54-84.3 29.41c-19.63 7.43-40.94 16.88-49.59 36.1-12.66 27.92 7.91 60.31 4.43 90.89-3.9 34.08-36.19 57.23-67.11 71.77s-65.52 27-84.94 55.32c-5.8 8.39-10 18.79-8 28.77 4.64 22.93 34.82 27.61 58.14 26.76 90.85-3.4 182.33-12.63 272.33.53 30.7 4.56 62 12.21 86.63 31.21 30.71 23.78 46.43 61.79 60.78 98 2.64 6.8 5.49 14 4.85 21.23-1.37 15.82-17.73 26-33.13 29.09s-31.76 1.59-46.53 6.79c-26.8 9.34-44.63 38.33-72.59 42.68-16.88 2.55-33.45-4.56-49.27-10.93a652.1 652.1 0 0 0 -196.48-45.29c-45.37-3.19-92.75-1.27-133.05 19.75-69.85 36.52-118.25 110.72-112 186.62 7.33 88.77 114 154.94 153.85 178.83 78.77 47.21 144.16 27.08 205.67 106.61 48.75 63 51.6 149.39 99.18 204.6 139.49-10.09 267.05-63.6 369.4-147.05a667.32 667.32 0 0 1 67.53-235.49c11-21.87 23.85-48.84 6.22-71-6.12-7.65-15-13.48-18.25-22.83-4.33-12.53 3.38-25.8 10.45-37.05 29.33-47.25 51.91-105.64 32.18-157.67-6.22-16.35-15.93-31.64-17.3-49.48-.85-12.21 3.27-25.69 13.4-32.6 14.46-9.87 34.19-3.08 49.49 5.63 37.35 21.45 71.75 52.13 102.77 85.58.11-1.7.11-3.4.11-5.1-.03-330.28-237.85-604.75-550.7-659.1zm349.38 485.11h-73.17a42.65 42.65 0 0 1 -42.24-37.83h-13.78a43.06 43.06 0 0 1 0-86.12h73.26c21.8 0 39.6 16.53 42.24 37.82h13.69a43.06 43.06 0 0 1 0 86.12z" fill="#10c462" stroke-dasharray="2644.98 79.35 6612.44 0" stroke-width="36"/><path d="m1902.89 773.41-17.37 3.9-292.52 65.69-62.4 14v392.7c0 107.5 121.88 312.78 342.26 402.75l30 12.24 30-12.24c220.38-90 342.26-295.25 342.26-402.75v-392.7l-62.4-14-292.48-65.67-17.37-3.9z" fill="#fff" stroke-width="36.47"/><path d="m1902.89 1580.25c201.08-82.09 292.48-262.69 292.48-328.37v-328.36l-292.48-65.67-292.48 65.67v328.37c0 65.67 91.4 246.27 292.48 328.36z" fill="#fff" stroke-dasharray="3067.49 92.02 7668.72 0" stroke-width="36"/><path d="m1898.59 1362.07c57.83 0 134.94-38.8 134.94-155.18s-134.94-232.78-134.94-232.78-134.94 116.39-134.94 232.78 77.11 155.18 134.94 155.18z" fill="#10c462" stroke-dasharray="2644.98 79.35 6612.44 0" stroke-width="36"/></g><path d="m982.22 449.67v237.49" fill="none" stroke-width="36.47"/><path d="m1323.53 2325c56.51-1.69 126.52-6.28 172.79-17.89 61.45-15.46 134.44-24.45 205.94 6.28 45 19.3 165.63 43.38 244.29 39.53s159 13 159 60.89l84.07-42.72c32.59-18.17 78.86-34.66 106-15.55 24 16.86 30 48.9-7.26 77-124.1 93.68-362.25 238.71-444.09 284.61a74.2 74.2 0 0 1 -57.16 6.37l-397.29-119.22a74.28 74.28 0 0 0 -21.32-3.09h-45" fill="#fff" stroke-width="36.47" transform="translate(-914.38 -755.18)"/><path d="m2105.57 2413.85c1.44 17.53-23 79.63-163.2 78.31-154.53-1.45-191.79 8.64-222.14 25.15" fill="none" stroke-dasharray="320.07 53.34 6668.12" stroke-width="36.47" transform="translate(-914.38 -755.18)"/><path d="m1238.16 2292.06h68.3c9.43 0 17.08 8.39 17.08 18.74v327.89c0 10.35-7.65 18.74-17.08 18.74h-68.3z" fill="#fff" stroke-width="36.47" transform="translate(-914.38 -755.18)"/><path d="m932.38 2264h285.57c11.16 0 20.21 8.39 20.21 18.74v402.84c0 10.35-9 18.74-20.21 18.74h-285.57" fill="#a1f6ff" stroke-dasharray="3067.49 92.02 7668.72 0" stroke-width="36" transform="translate(-914.38 -755.18)"/></g></svg>