<svg id="Layer_1" enable-background="new 0 0 512 512" viewBox="0 0 512 512" xmlns="http://www.w3.org/2000/svg"><g clip-rule="evenodd" fill="#9c6" fill-rule="evenodd"><path d="m282.41 370.79c6.55 9.1 6.94 21.69 1.56 31.44h46.8v-36.4z"/><path d="m401.8 296.98h-31.18c-37.42 0-32.97 35.94-32.88 61.14v128.72l94.96-.65v-158.31c0-17.04-13.89-30.9-30.9-30.9zm3.86 121.95.03 23.64c-3.29 25.91-42.29 23.19-42.29-3v-20.64z"/><path d="m231.95 402.23v-32.14l-39.8-5.05c-2.24-.28-4.28-1.64-5.36-3.8l-22.02-44.08c-4.2-8.36-12.02-13.18-21.4-13.18h-3c-3.03.51-6.18.77-9.38.77-3.17 0-6.32-.26-9.38-.77h-9.41c-13.15 0-23.9 10.74-23.9 23.9v151.37l80.31.4v-67.38l-33.76-31.35c-2.83-2.64-2.98-7.06-.34-9.86 2.61-2.83 7.03-3 9.86-.37l33.96 31.55h53.62z"/></g><path d="m383.01 204.65c-23.78 0-43.06 19.25-43.06 43.03s19.28 43.06 43.06 43.06 43.03-19.28 43.03-43.06-19.25-43.03-43.03-43.03zm-40.34 2.7c6.09-6.09 13.55-10.8 21.88-13.66-2.61-17.35-6.49-33.79-11.4-48.98-27.35 13.52-57.6 21.29-89.18 22.28v73.42h62.42c1.65-12.85 7.55-24.36 16.28-33.06zm35.58-16.5c30.64-2.55 57.52 19.53 61.34 49.55h20.86c-1.73-51-22.22-97.26-54.79-132.07-12.1 11.37-25.54 21.34-40.03 29.71 5.47 16.36 9.72 34.07 12.62 52.81zm61.42 63.55c-1.87 15.76-10.15 29.68-22.39 38.89 13.38 6.01 22.42 19.42 22.42 34.58v9.47c12.67-25.71 19.76-53.83 20.75-82.94zm-47.28 49.58c-3.06.51-6.21.77-9.38.77-3.2 0-6.35-.26-9.38-.77h-3c-23.67 0-26.08 19.53-26.08 38.24l.17 16.27v82.97c.03.31.03.62 0 .94v37.42l80.99-.54v-151.4c0-13.15-10.74-23.9-23.9-23.9zm-42.55-9.86c-12.87-9.18-21.6-23.5-23.5-39.71h-62.36v73.45c22.85.74 45.27 5.02 66.56 12.67.14-18.97 2.66-38.19 19.3-46.41zm-117.89 108.11v-32.14l-39.8-5.05c-2.24-.28-4.28-1.64-5.36-3.8l-22.02-44.08c-4.2-8.36-12.02-13.18-21.4-13.18h-3c-3.03.51-6.18.77-9.38.77-3.17 0-6.32-.26-9.38-.77h-9.41c-13.15 0-23.9 10.74-23.9 23.9v151.37l80.31.4v-67.38l-33.76-31.35c-2.83-2.64-2.98-7.06-.34-9.86 2.61-2.83 7.03-3 9.86-.37l33.96 31.55h53.62zm7.28-45.27 10.77 1.36v-16.44c-18.11.6-35.8 3.54-52.89 8.82l.48.96zm6.72 14.91v30.36h13.69c17.52 0 19.3-26.16 2.1-28.35-2.72-.31-4.62-.31-7.11-.91zm-114.97-181.22c1.62 0 3.2.06 4.76.2 2.89-18.74 7.14-36.45 12.61-52.81-14.48-8.36-27.92-18.34-40.03-29.71-32.56 34.81-53.05 81.07-54.78 132.07h20.86c3.6-28.23 27.72-49.75 56.58-49.75zm18.45 3.03c20.38 6.97 35.38 25.03 38.15 46.72h62.42v-73.42c-31.58-.99-61.82-8.76-89.18-22.28-4.9 15.2-8.78 31.64-11.39 48.98zm38.21 60.72c-1.98 16.84-11.31 31.61-25 40.76 6.15 3.6 11.2 8.99 14.57 15.76l13.55 27.1c19.11-6.09 39.03-9.52 59.24-10.18v-73.44zm-90.93 38.89c-12.25-9.21-20.52-23.13-22.39-38.89h-20.78c.99 29.11 8.08 57.23 20.75 82.94v-9.47c0-15.16 9.04-28.57 22.42-34.58zm64.71-76.05c-16.81-16.81-44.08-16.81-60.89 0s-16.81 44.08 0 60.89 44.08 16.81 60.89 0 16.81-44.08 0-60.89zm120.99 153.55c6.55 9.1 6.94 21.69 1.56 31.44h46.8v-36.4zm-32.4 45.44h-54.96c14.31 17.63 32.94 31.8 54.96 34.33zm-67.41 6.86v13.86c6.41 2.52 12.98 4.73 19.7 6.6-6.97-5.8-13.55-12.66-19.7-20.46zm0 28.83v34.75c0 4.02-3.23 7.17-7.65 6.94l-93.69-.45c-3.83-.03-6.94-3.15-6.94-6.97h-.03v-120.61c-11.03-17.01-19.73-35.66-25.68-55.5-23.36-77.73-1.39-160.61 54.54-216.51 84.98-84.98 222.72-84.98 307.7 0 55.93 55.9 77.9 138.78 54.54 216.51-5.95 19.84-14.66 38.47-25.68 55.5v120.61h-.03c0 3.83-3.12 6.94-6.94 6.97l-94.99.65c-3.86 0-6.97-3.15-6.97-6.97v-34.7c-47.72 17.19-100.53 17.13-148.18-.22zm173.96-34.41v-84.78c0-3.85 3.12-7 7-7 3.86 0 7 3.15 7 7v79.2h28.12v-79.2c0-3.85 3.12-7 7-7 3.85 0 7 3.15 7 7l-.08 110.83c-4.71 34.67-56.18 30.61-56.18-4 0-3.03-.2-20.52.14-22.05zm42.15 24.57-.03-16.16h-28.29v13.63c0 17.47 25.8 19.32 28.32 2.53zm-67.95-4.87v-13.35c-5.98 7.48-12.36 14.09-19.08 19.7 6.5-1.82 12.88-3.94 19.08-6.35zm-11.82-20.98h-54.96v34.33c22.03-2.52 40.65-16.7 54.96-34.33zm-54.96-57.6 58.85-6.01c-18.88-6.46-38.64-10.06-58.85-10.74zm0-314.39v108.74c29.99-1.02 58.65-8.5 84.5-21.51-15.05-39.21-43.77-82.52-84.5-87.23zm96.83 80.45c12.59-7.48 24.32-16.27 34.95-26.22-23.5-21.91-52.19-38.32-84.05-47.2 21.92 18.29 38.1 45.38 49.1 73.42zm-242.61-26.22c10.66 9.95 22.39 18.74 34.98 26.22 10.97-28.03 27.18-55.13 49.1-73.42-31.87 8.87-60.56 25.29-84.08 47.2zm47.31 32.99c25.85 13.01 54.51 20.49 84.5 21.51v-108.73c-40.74 4.71-69.45 48.02-84.5 87.22z" fill="#366"/></svg>